<svg width="40" height="40" viewBox="0 0 40 40" fill="none" xmlns="http://www.w3.org/2000/svg">
<g clip-path="url(#clip0_175_311)">
<path d="M20 38.089C20.6999 38.0729 21.3716 37.8097 21.8962 37.3461C22.4208 36.8825 22.7646 36.2483 22.8667 35.5557H17.0222C17.1272 36.2671 17.487 36.9162 18.0348 37.3822C18.5825 37.8482 19.2809 38.0994 20 38.089Z" fill="#595959"/>
<path d="M36.1222 30.9222C35.0508 29.967 34.1128 28.872 33.3334 27.6666C32.4825 26.0028 31.9725 24.1858 31.8334 22.3222V16.8333C31.8288 16.1666 31.7694 15.5013 31.6556 14.8444C30.781 14.6696 29.9405 14.3544 29.1667 13.9111C29.4617 14.8609 29.6115 15.8498 29.6111 16.8444V22.3333C29.7473 24.6066 30.3727 26.8238 31.4445 28.8333C32.2116 30.0488 33.1218 31.1679 34.1556 32.1666H5.70003C6.73381 31.1679 7.64403 30.0488 8.41114 28.8333C9.48293 26.8238 10.1083 24.6066 10.2445 22.3333V16.8333C10.2386 15.5474 10.4865 14.2729 10.9739 13.083C11.4612 11.893 12.1785 10.8108 13.0847 9.89846C13.9909 8.98609 15.0681 8.26142 16.2548 7.76596C17.4414 7.2705 18.7141 7.01397 20 7.01106C21.882 7.01256 23.7217 7.56912 25.2889 8.61106C25.1161 7.9766 25.0192 7.3239 25 6.66661V5.96661C23.8399 5.3959 22.5935 5.02049 21.3111 4.8555V3.4555C21.3111 3.0621 21.1549 2.68481 20.8767 2.40663C20.5985 2.12845 20.2212 1.97217 19.8278 1.97217C19.4344 1.97217 19.0571 2.12845 18.7789 2.40663C18.5008 2.68481 18.3445 3.0621 18.3445 3.4555V4.91106C15.473 5.31612 12.8451 6.74633 10.9458 8.93765C9.04655 11.129 8.00417 13.9334 8.01114 16.8333V22.3222C7.87198 24.1858 7.362 26.0028 6.51114 27.6666C5.74545 28.8692 4.82247 29.9641 3.76669 30.9222C3.64817 31.0263 3.55318 31.1545 3.48805 31.2981C3.42291 31.4418 3.38912 31.5977 3.38892 31.7555V33.2666C3.38892 33.5613 3.50598 33.8439 3.71435 34.0523C3.92273 34.2607 4.20534 34.3777 4.50003 34.3777H35.3889C35.6836 34.3777 35.9662 34.2607 36.1746 34.0523C36.383 33.8439 36.5 33.5613 36.5 33.2666V31.7555C36.4998 31.5977 36.466 31.4418 36.4009 31.2981C36.3358 31.1545 36.2408 31.0263 36.1222 30.9222Z" fill="#595959"/>
<path d="M33.3334 12.2224C36.4016 12.2224 38.8889 9.73513 38.8889 6.66688C38.8889 3.59863 36.4016 1.11133 33.3334 1.11133C30.2651 1.11133 27.7778 3.59863 27.7778 6.66688C27.7778 9.73513 30.2651 12.2224 33.3334 12.2224Z" fill="#555555"/>
</g>
<defs>
<clipPath id="clip0_175_311">
<rect width="40" height="40" fill="white"/>
</clipPath>
</defs>
</svg>
