<svg width="24" height="24" viewBox="0 0 24 24" fill="none" xmlns="http://www.w3.org/2000/svg">
<path d="M14.25 0C14.4489 0 14.6397 0.0790176 14.7803 0.21967C14.921 0.360322 15 0.551088 15 0.75C15 0.948912 15.079 1.13968 15.2197 1.28033C15.3603 1.42098 15.5511 1.5 15.75 1.5C15.9489 1.5 16.1397 1.57902 16.2803 1.71967C16.421 1.86032 16.5 2.05109 16.5 2.25V3C16.5 3.19891 16.421 3.38968 16.2803 3.53033C16.1397 3.67098 15.9489 3.75 15.75 3.75H8.25C8.05109 3.75 7.86032 3.67098 7.71967 3.53033C7.57902 3.38968 7.5 3.19891 7.5 3V2.25C7.5 2.05109 7.57902 1.86032 7.71967 1.71967C7.86032 1.57902 8.05109 1.5 8.25 1.5C8.44891 1.5 8.63968 1.42098 8.78033 1.28033C8.92098 1.13968 9 0.948912 9 0.75C9 0.551088 9.07902 0.360322 9.21967 0.21967C9.36032 0.0790176 9.55109 0 9.75 0L14.25 0Z" fill="#555555"/>
<path d="M4.5 3.75C4.5 3.55109 4.57902 3.36032 4.71967 3.21967C4.86032 3.07902 5.05109 3 5.25 3H6C6.19891 3 6.38968 2.92098 6.53033 2.78033C6.67098 2.63968 6.75 2.44891 6.75 2.25C6.75 2.05109 6.67098 1.86032 6.53033 1.71967C6.38968 1.57902 6.19891 1.5 6 1.5H5.25C4.65326 1.5 4.08097 1.73705 3.65901 2.15901C3.23705 2.58097 3 3.15326 3 3.75V21.75C3 22.3467 3.23705 22.919 3.65901 23.341C4.08097 23.7629 4.65326 24 5.25 24H18.75C19.3467 24 19.919 23.7629 20.341 23.341C20.7629 22.919 21 22.3467 21 21.75V3.75C21 3.15326 20.7629 2.58097 20.341 2.15901C19.919 1.73705 19.3467 1.5 18.75 1.5H18C17.8011 1.5 17.6103 1.57902 17.4697 1.71967C17.329 1.86032 17.25 2.05109 17.25 2.25C17.25 2.44891 17.329 2.63968 17.4697 2.78033C17.6103 2.92098 17.8011 3 18 3H18.75C18.9489 3 19.1397 3.07902 19.2803 3.21967C19.421 3.36032 19.5 3.55109 19.5 3.75V21.75C19.5 21.9489 19.421 22.1397 19.2803 22.2803C19.1397 22.421 18.9489 22.5 18.75 22.5H5.25C5.05109 22.5 4.86032 22.421 4.71967 22.2803C4.57902 22.1397 4.5 21.9489 4.5 21.75V3.75Z" fill="#555555"/>
<path d="M9 10C8.80109 10 8.61032 10.079 8.46967 10.2197C8.32902 10.3603 8.25 10.5511 8.25 10.75C8.25 10.9489 8.32902 11.1397 8.46967 11.2803C8.61032 11.421 8.80109 11.5 9 11.5H15C15.1989 11.5 15.3897 11.421 15.5303 11.2803C15.671 11.1397 15.75 10.9489 15.75 10.75C15.75 10.5511 15.671 10.3603 15.5303 10.2197C15.3897 10.079 15.1989 10 15 10H9Z" fill="#555555"/>
<path d="M9 6C8.80109 6 8.61032 6.07902 8.46967 6.21967C8.32902 6.36032 8.25 6.55109 8.25 6.75C8.25 6.94891 8.32902 7.13968 8.46967 7.28033C8.61032 7.42098 8.80109 7.5 9 7.5H15C15.1989 7.5 15.3897 7.42098 15.5303 7.28033C15.671 7.13968 15.75 6.94891 15.75 6.75C15.75 6.55109 15.671 6.36032 15.5303 6.21967C15.3897 6.07902 15.1989 6 15 6H9Z" fill="#555555"/>
<path d="M9 18C8.80109 18 8.61032 18.079 8.46967 18.2197C8.32902 18.3603 8.25 18.5511 8.25 18.75C8.25 18.9489 8.32902 19.1397 8.46967 19.2803C8.61032 19.421 8.80109 19.5 9 19.5H15C15.1989 19.5 15.3897 19.421 15.5303 19.2803C15.671 19.1397 15.75 18.9489 15.75 18.75C15.75 18.5511 15.671 18.3603 15.5303 18.2197C15.3897 18.079 15.1989 18 15 18H9Z" fill="#555555"/>
<path d="M9 14C8.80109 14 8.61032 14.079 8.46967 14.2197C8.32902 14.3603 8.25 14.5511 8.25 14.75C8.25 14.9489 8.32902 15.1397 8.46967 15.2803C8.61032 15.421 8.80109 15.5 9 15.5H15C15.1989 15.5 15.3897 15.421 15.5303 15.2803C15.671 15.1397 15.75 14.9489 15.75 14.75C15.75 14.5511 15.671 14.3603 15.5303 14.2197C15.3897 14.079 15.1989 14 15 14H9Z" fill="#555555"/>
</svg>
