<svg width="32" height="32" viewBox="0 0 32 32" fill="none" xmlns="http://www.w3.org/2000/svg">
<path d="M14 31C12.4087 31 10.8826 30.3679 9.75736 29.2426C8.63214 28.1174 8 26.5913 8 25V9C8 6.87827 8.84285 4.84344 10.3431 3.34315C11.8434 1.84285 13.8783 1 16 1C18.1217 1 20.1566 1.84285 21.6569 3.34315C23.1571 4.84344 24 6.87827 24 9V28C24 28.2652 23.8946 28.5196 23.7071 28.7071C23.5196 28.8946 23.2652 29 23 29C22.7348 29 22.4804 28.8946 22.2929 28.7071C22.1054 28.5196 22 28.2652 22 28V9C22 7.4087 21.3679 5.88258 20.2426 4.75736C19.1174 3.63214 17.5913 3 16 3C14.4087 3 12.8826 3.63214 11.7574 4.75736C10.6321 5.88258 10 7.4087 10 9V25C10 26.0609 10.4214 27.0783 11.1716 27.8284C11.9217 28.5786 12.9391 29 14 29C15.0609 29 16.0783 28.5786 16.8284 27.8284C17.5786 27.0783 18 26.0609 18 25V10C18 9.46957 17.7893 8.96086 17.4142 8.58579C17.0391 8.21071 16.5304 8 16 8C15.4696 8 14.9609 8.21071 14.5858 8.58579C14.2107 8.96086 14 9.46957 14 10V23C14 23.2652 13.8946 23.5196 13.7071 23.7071C13.5196 23.8946 13.2652 24 13 24C12.7348 24 12.4804 23.8946 12.2929 23.7071C12.1054 23.5196 12 23.2652 12 23V10C12 8.93913 12.4214 7.92172 13.1716 7.17157C13.9217 6.42143 14.9391 6 16 6C17.0609 6 18.0783 6.42143 18.8284 7.17157C19.5786 7.92172 20 8.93913 20 10V25C20 26.5913 19.3679 28.1174 18.2426 29.2426C17.1174 30.3679 15.5913 31 14 31Z" fill="#555555"/>
</svg>
