<svg width="25" height="24" viewBox="0 0 25 24" fill="none" xmlns="http://www.w3.org/2000/svg">
<path fill-rule="evenodd" clip-rule="evenodd" d="M12.0084 0C12.1477 4.67329e-06 12.2842 0.0387577 12.4027 0.111924C12.5212 0.18509 12.617 0.289783 12.6794 0.414291L13.2243 1.50105H20.2642C20.8614 1.50105 21.4341 1.73827 21.8563 2.16053C22.2786 2.58278 22.5158 3.15548 22.5158 3.75263V16.5116H23.2663C23.4654 16.5116 23.6563 16.5907 23.797 16.7314C23.9378 16.8722 24.0169 17.0631 24.0169 17.2621C24.0169 17.4612 23.9378 17.6521 23.797 17.7928C23.6563 17.9336 23.4654 18.0126 23.2663 18.0126H18.9733L20.2417 23.0847C20.2847 23.276 20.2512 23.4765 20.1484 23.6433C20.0455 23.8102 19.8814 23.9302 19.6912 23.9777C19.501 24.0251 19.2997 23.9963 19.1305 23.8973C18.9613 23.7983 18.8375 23.637 18.7857 23.448L18.1778 21.0147H5.8391L5.23117 23.448C5.17932 23.637 5.05556 23.7983 4.88635 23.8973C4.71713 23.9963 4.5159 24.0251 4.32569 23.9777C4.13548 23.9302 3.97138 23.8102 3.8685 23.6433C3.76562 23.4765 3.73211 23.276 3.77515 23.0847L5.04354 18.0126H0.750527C0.551475 18.0126 0.360575 17.9336 0.219824 17.7928C0.0790731 17.6521 0 17.4612 0 17.2621C0 17.0631 0.0790731 16.8722 0.219824 16.7314C0.360575 16.5907 0.551475 16.5116 0.750527 16.5116H1.50105V3.75263C1.50105 3.15548 1.73827 2.58278 2.16053 2.16053C2.58278 1.73827 3.15548 1.50105 3.75263 1.50105H10.7941L11.3375 0.414291C11.3998 0.289783 11.4957 0.18509 11.6141 0.111924C11.7326 0.0387577 11.8692 4.67329e-06 12.0084 0ZM3.00211 16.5116H21.0147V3.75263C21.0147 3.55358 20.9357 3.36268 20.7949 3.22193C20.6542 3.08118 20.4633 3.00211 20.2642 3.00211H3.75263C3.55358 3.00211 3.36268 3.08118 3.22193 3.22193C3.08118 3.36268 3.00211 3.55358 3.00211 3.75263V16.5116ZM17.4272 18.0126H6.58962L6.21436 19.5137H17.8025L17.4272 18.0126Z" fill="#555555"/>
</svg>
