<svg width="24" height="24" viewBox="0 0 24 24" fill="none" xmlns="http://www.w3.org/2000/svg">
<path d="M18.4038 17.143C18.2163 17.1434 18.0347 17.0736 17.8904 16.9458L14.2645 13.7144H12.7885C11.0865 13.7144 9.45418 12.9919 8.25068 11.706C7.04721 10.42 6.37109 8.67581 6.37109 6.85719C6.37109 5.03855 7.04721 3.2944 8.25068 2.00843C9.45418 0.722448 11.0865 0 12.7885 0H17.6016C19.1603 0.00475718 20.6641 0.615553 21.8323 1.71834C23.0005 2.82114 23.753 4.34053 23.9495 5.99281C24.146 7.64509 23.7729 9.3173 22.9 10.6972C22.0271 12.0771 20.714 13.0704 19.2059 13.4915V16.2858C19.2063 16.4498 19.1627 16.6104 19.0802 16.7486C18.9978 16.8869 18.8799 16.997 18.7407 17.0658C18.6349 17.1174 18.52 17.1437 18.4038 17.143ZM12.7885 1.7143C11.512 1.7143 10.2878 2.25614 9.3852 3.22062C8.48251 4.1851 7.97545 5.49321 7.97545 6.85719C7.97545 8.22118 8.48251 9.52927 9.3852 10.4937C10.2878 11.4583 11.512 12.0001 12.7885 12.0001H14.5533C14.7408 11.9997 14.9224 12.0694 15.0667 12.1972L17.6016 14.4515V12.7887C17.5997 12.5806 17.6686 12.379 17.7955 12.2213C17.9225 12.0636 18.0987 11.9607 18.2915 11.9315C19.4769 11.7239 20.5469 11.0502 21.2911 10.0426C22.0354 9.03504 22.4001 7.76654 22.3137 6.48624C22.2272 5.20597 21.6958 4.00653 20.8239 3.12356C19.952 2.24058 18.8027 1.7379 17.6016 1.7143H12.7885Z" fill="#555555"/>
<path d="M15.9969 6H14.3926V7.7143H15.9969V6Z" fill="#555555"/>
<path d="M11.9852 6H10.3809V7.7143H11.9852V6Z" fill="#555555"/>
<path d="M20.0067 6H18.4023V7.7143H20.0067V6Z" fill="#555555"/>
<path d="M5.56751 24.0001C5.45131 24.0008 5.33635 23.9744 5.2306 23.9229C5.09135 23.8541 4.97351 23.744 4.89105 23.6058C4.80859 23.4675 4.76496 23.3069 4.76533 23.1429V20.3486C3.48897 19.9853 2.34862 19.21 1.49993 18.1284C0.651237 17.0469 0.135549 15.7119 0.0232437 14.3056C-0.0890652 12.8993 0.20748 11.4902 0.872405 10.2707C1.53734 9.05113 2.53825 8.08058 3.73855 7.49137C3.83542 7.43686 3.94174 7.40403 4.05092 7.39512C4.16011 7.38612 4.26986 7.40112 4.37341 7.43917C4.47697 7.47723 4.57214 7.53749 4.65305 7.61635C4.73397 7.6952 4.79891 7.79095 4.8439 7.89758C4.88888 8.00429 4.91295 8.11966 4.91461 8.23666C4.91627 8.35367 4.8955 8.46981 4.85357 8.5779C4.81164 8.68598 4.74944 8.78378 4.6708 8.86521C4.59217 8.94664 4.49876 9.00999 4.39633 9.05139C3.44971 9.51005 2.66745 10.2838 2.16656 11.2569C1.66566 12.23 1.47305 13.3503 1.61751 14.4501C1.76197 15.5499 2.23575 16.5703 2.968 17.3585C3.70025 18.1467 4.65161 18.6605 5.67982 18.8229C5.87256 18.852 6.04883 18.9551 6.17575 19.1128C6.30267 19.2704 6.37161 19.4721 6.36969 19.68V21.3429L8.90458 19.0886C9.04432 18.9485 9.22649 18.8663 9.41797 18.8572H11.1828C11.8251 18.8585 12.4612 18.721 13.0526 18.4529C13.644 18.1847 14.1785 17.7917 14.6241 17.2972C14.773 17.1335 14.9767 17.0398 15.1904 17.0365C15.2961 17.035 15.4011 17.0556 15.4994 17.0974C15.5977 17.1392 15.6873 17.2012 15.7632 17.28C15.839 17.3589 15.8996 17.4528 15.9414 17.5566C15.9833 17.6604 16.0056 17.772 16.0071 17.8851C16.0086 17.9981 15.9893 18.1103 15.9502 18.2153C15.911 18.3204 15.853 18.4162 15.7792 18.4972C15.1815 19.1534 14.4668 19.675 13.6774 20.0312C12.888 20.3875 12.0397 20.5712 11.1828 20.5715H9.70676L6.0809 23.8029C5.93658 23.9307 5.75495 24.0005 5.56751 24.0001Z" fill="#555555"/>
</svg>
