<svg width="16" height="16" viewBox="0 0 16 16" fill="none" xmlns="http://www.w3.org/2000/svg">
<g clip-path="url(#clip0_892_150)">
<path d="M12.9238 15.9669H3.0776C2.58797 15.9669 2.11839 15.7983 1.77217 15.4982C1.42595 15.1982 1.23145 14.7912 1.23145 14.3669V4.23353C1.23145 4.09208 1.29628 3.95642 1.41169 3.85641C1.52709 3.75639 1.68362 3.7002 1.84683 3.7002C2.01004 3.7002 2.16657 3.75639 2.28197 3.85641C2.39738 3.95642 2.46221 4.09208 2.46221 4.23353V14.3669C2.46221 14.5083 2.52705 14.644 2.64246 14.744C2.75786 14.844 2.91439 14.9002 3.0776 14.9002H12.9238C13.087 14.9002 13.2435 14.844 13.3589 14.744C13.4743 14.644 13.5391 14.5083 13.5391 14.3669V4.23353C13.5391 4.09208 13.604 3.95642 13.7194 3.85641C13.8348 3.75639 13.9913 3.7002 14.1545 3.7002C14.3177 3.7002 14.4743 3.75639 14.5897 3.85641C14.7051 3.95642 14.7699 4.09208 14.7699 4.23353V14.3669C14.7699 14.7912 14.5754 15.1982 14.2292 15.4982C13.883 15.7983 13.4134 15.9669 12.9238 15.9669Z" fill="#555555"/>
<path d="M15.3846 3.16676H0.615385C0.452174 3.16676 0.295649 3.11057 0.180242 3.01055C0.064835 2.91054 0 2.77488 0 2.63343C0 2.49198 0.064835 2.35633 0.180242 2.25631C0.295649 2.15629 0.452174 2.1001 0.615385 2.1001H15.3846C15.5478 2.1001 15.7044 2.15629 15.8198 2.25631C15.9352 2.35633 16 2.49198 16 2.63343C16 2.77488 15.9352 2.91054 15.8198 3.01055C15.7044 3.11057 15.5478 3.16676 15.3846 3.16676Z" fill="#555555"/>
<path d="M10.4613 3.1668C10.2981 3.1668 10.1416 3.11061 10.0262 3.01059C9.91076 2.91057 9.84593 2.77491 9.84593 2.63346V1.03346H6.15362V2.63346C6.15362 2.77491 6.08879 2.91057 5.97338 3.01059C5.85797 3.11061 5.70145 3.1668 5.53824 3.1668C5.37503 3.1668 5.2185 3.11061 5.10309 3.01059C4.98769 2.91057 4.92285 2.77491 4.92285 2.63346V0.50013C4.92285 0.358681 4.98769 0.223026 5.10309 0.123007C5.2185 0.0229872 5.37503 -0.0332031 5.53824 -0.0332031H10.4613C10.6245 -0.0332031 10.781 0.0229872 10.8965 0.123007C11.0119 0.223026 11.0767 0.358681 11.0767 0.50013V2.63346C11.0767 2.77491 11.0119 2.91057 10.8965 3.01059C10.781 3.11061 10.6245 3.1668 10.4613 3.1668Z" fill="#555555"/>
<path d="M8.00113 13.2999C7.83792 13.2999 7.68139 13.2437 7.56598 13.1437C7.45058 13.0437 7.38574 12.9081 7.38574 12.7666V5.29993C7.38574 5.15849 7.45058 5.02283 7.56598 4.92281C7.68139 4.82279 7.83792 4.7666 8.00113 4.7666C8.16434 4.7666 8.32086 4.82279 8.43627 4.92281C8.55168 5.02283 8.61651 5.15849 8.61651 5.29993V12.7666C8.61651 12.9081 8.55168 13.0437 8.43627 13.1437C8.32086 13.2437 8.16434 13.2999 8.00113 13.2999Z" fill="#555555"/>
<path d="M11.0783 12.2335C10.9151 12.2335 10.7585 12.1773 10.6431 12.0773C10.5277 11.9773 10.4629 11.8416 10.4629 11.7002V6.36683C10.4629 6.22538 10.5277 6.08973 10.6431 5.98971C10.7585 5.88969 10.9151 5.8335 11.0783 5.8335C11.2415 5.8335 11.398 5.88969 11.5134 5.98971C11.6288 6.08973 11.6937 6.22538 11.6937 6.36683V11.7002C11.6937 11.8416 11.6288 11.9773 11.5134 12.0773C11.398 12.1773 11.2415 12.2335 11.0783 12.2335Z" fill="#555555"/>
<path d="M4.92398 12.2335C4.76077 12.2335 4.60424 12.1773 4.48884 12.0773C4.37343 11.9773 4.30859 11.8416 4.30859 11.7002V6.36683C4.30859 6.22538 4.37343 6.08973 4.48884 5.98971C4.60424 5.88969 4.76077 5.8335 4.92398 5.8335C5.08719 5.8335 5.24371 5.88969 5.35912 5.98971C5.47453 6.08973 5.53936 6.22538 5.53936 6.36683V11.7002C5.53936 11.8416 5.47453 11.9773 5.35912 12.0773C5.24371 12.1773 5.08719 12.2335 4.92398 12.2335Z" fill="#555555"/>
</g>
<defs>
<clipPath id="clip0_892_150">
<rect width="16" height="16" fill="white"/>
</clipPath>
</defs>
</svg>
