<svg width="29" height="24" viewBox="0 0 29 24" fill="none" xmlns="http://www.w3.org/2000/svg">
<g clip-path="url(#clip0_892_141)">
<path d="M1.83846 2.76923C1.83846 2.03479 2.12973 1.33042 2.6482 0.811089C3.16667 0.291757 3.86986 0 4.60308 0H9.69737C11.4631 0 12.9412 1.03385 13.9567 2.18585C14.7124 3.04246 15.6247 3.69231 16.5831 3.69231H24.877C25.6103 3.69231 26.3135 3.98406 26.8319 4.5034C27.3504 5.02273 27.6417 5.72709 27.6417 6.46154V7.64308C28.6922 8.13231 29.3742 9.26031 29.2193 10.4972L28.0398 19.9569C27.9004 21.0739 27.3583 22.1014 26.5155 22.846C25.6727 23.5906 24.5872 24.001 23.4634 24H6.01489C4.8917 24.0001 3.80715 23.5893 2.96509 22.8448C2.12303 22.1003 1.58147 21.0733 1.44219 19.9569L0.262617 10.4972C0.18995 9.91567 0.303366 9.32601 0.586543 8.81312C0.86972 8.30023 1.30805 7.89056 1.83846 7.64308V2.76923ZM3.68154 7.38461H25.7986V6.46154C25.7986 6.21672 25.7015 5.98193 25.5287 5.80882C25.3558 5.63571 25.1214 5.53846 24.877 5.53846H16.5831C14.8064 5.53846 13.4315 4.37723 12.5763 3.408C11.7432 2.46277 10.7221 1.84615 9.69737 1.84615H4.60308C4.35868 1.84615 4.12428 1.94341 3.95145 2.11652C3.77863 2.28963 3.68154 2.52442 3.68154 2.76923V7.38461ZM3.00513 9.23077C2.87448 9.23081 2.74534 9.25867 2.62627 9.3125C2.50719 9.36634 2.4009 9.44492 2.31445 9.54304C2.228 9.64115 2.16337 9.75656 2.12484 9.8816C2.08631 10.0066 2.07476 10.1385 2.09096 10.2683L3.27053 19.728C3.35411 20.3979 3.67916 21.0142 4.18455 21.461C4.68994 21.9077 5.34085 22.1541 6.01489 22.1538H23.4652C24.1393 22.1541 24.7902 21.9077 25.2956 21.461C25.801 21.0142 26.126 20.3979 26.2096 19.728L27.3892 10.2683C27.4054 10.1385 27.3938 10.0066 27.3553 9.8816C27.3167 9.75656 27.2521 9.64115 27.1657 9.54304C27.0792 9.44492 26.9729 9.36634 26.8539 9.3125C26.7348 9.25867 26.6056 9.23081 26.475 9.23077H3.00513Z" fill="#555555"/>
</g>
<defs>
<clipPath id="clip0_892_141">
<rect width="29" height="24" fill="white"/>
</clipPath>
</defs>
</svg>
