<svg width="32" height="32" viewBox="0 0 32 32" fill="none" xmlns="http://www.w3.org/2000/svg">
<g clip-path="url(#clip0_478_839)">
<path d="M14.8574 16.0001H30.8574M30.8574 16.0001L26.286 11.4287M30.8574 16.0001L26.286 20.5716" stroke="#555555" stroke-width="3" stroke-linecap="round" stroke-linejoin="round"/>
<path d="M26.7431 26.263C24.6907 28.4023 22.0451 29.8787 19.1467 30.5021C16.2483 31.1256 13.2297 30.8677 10.4791 29.7616C7.72846 28.6555 5.37167 26.7518 3.71183 24.2953C2.052 21.8388 1.16504 18.9419 1.16504 15.9773C1.16504 13.0126 2.052 10.1157 3.71183 7.65921C5.37167 5.20273 7.72846 3.29901 10.4791 2.1929C13.2297 1.0868 16.2483 0.828903 19.1467 1.45239C22.0451 2.07588 24.6907 3.55223 26.7431 5.69155" stroke="#555555" stroke-width="3" stroke-linecap="round" stroke-linejoin="round"/>
</g>
<defs>
<clipPath id="clip0_478_839">
<rect width="32" height="32" fill="white"/>
</clipPath>
</defs>
</svg>
