<svg width="60" height="60" viewBox="0 0 60 60" fill="none" xmlns="http://www.w3.org/2000/svg">
<g clip-path="url(#clip0_473_834)">
<path d="M59.7871 43.2225C59.3708 42.0862 58.5758 41.4787 57.6721 40.9762C57.5223 40.8888 57.3684 40.8087 57.2108 40.7362L56.3896 40.32C53.5696 38.8237 51.3683 36.9375 49.8421 34.7025C49.4079 34.0739 49.0314 33.4075 48.7171 32.7113C48.5896 32.3363 48.5971 32.1262 48.6871 31.935C48.7809 31.7861 48.9048 31.6584 49.0508 31.56C49.5346 31.2375 50.0333 30.9113 50.3708 30.6938C50.9783 30.3038 51.4546 29.9925 51.7621 29.775C52.9208 28.965 53.7308 28.1025 54.2371 27.1425C54.5898 26.4785 54.7955 25.7463 54.8402 24.9957C54.8848 24.2451 54.7674 23.4937 54.4958 22.7925C53.7271 20.775 51.8221 19.5225 49.5121 19.5225C48.8951 19.5212 48.2808 19.6032 47.6858 19.7663C47.7083 18.3863 47.6783 16.9275 47.5546 15.495C47.1196 10.455 45.3533 7.815 43.5158 5.7075C42.3378 4.38821 40.9505 3.27201 39.4096 2.40375C36.6158 0.81 33.4508 0 29.9971 0C26.5471 0 23.3971 0.81 20.6033 2.40375C19.0583 3.27375 17.6708 4.39125 16.4896 5.715C14.6521 7.8225 12.8896 10.4662 12.4508 15.5025C12.3271 16.935 12.3008 18.3975 12.3158 19.77C11.7208 19.607 11.1065 19.525 10.4896 19.5262C8.1833 19.5262 6.27455 20.7825 5.50955 22.8C5.23652 23.5012 5.11763 24.253 5.16099 25.0042C5.20434 25.7555 5.40891 26.4886 5.7608 27.1538C6.2708 28.1138 7.0808 28.9762 8.2358 29.7825C8.5433 30 9.0233 30.3075 9.62705 30.705L10.8983 31.5338C11.0614 31.6417 11.2006 31.7822 11.3071 31.9463C11.4046 32.145 11.4083 32.3588 11.2621 32.76C10.9519 33.4416 10.5817 34.0941 10.1558 34.71C8.6633 36.8962 6.5258 38.7487 3.7958 40.23C2.35205 40.995 0.848303 41.505 0.214553 43.23C-0.265447 44.535 0.0495528 46.0162 1.26455 47.2612C1.7108 47.73 2.2283 48.1238 2.7983 48.4238C3.98264 49.0744 5.24195 49.5781 6.5483 49.9237C6.81799 49.9928 7.07408 50.1069 7.3058 50.2612C7.7483 50.6512 7.6883 51.2362 8.27705 52.0912C8.5733 52.5337 8.95205 52.9163 9.38705 53.2163C10.6246 54.075 12.0158 54.1275 13.4933 54.1838C14.8246 54.2363 16.3358 54.2962 18.0571 54.8587C18.7696 55.0987 19.5158 55.5562 20.3746 56.0887C22.4371 57.3562 25.2683 59.0962 29.9971 59.0962C34.7296 59.0962 37.5721 57.3487 39.6571 56.0737C40.5083 55.5487 41.2471 55.0987 41.9408 54.87C43.6658 54.3 45.1771 54.24 46.5083 54.1912C47.9821 54.135 49.3733 54.0788 50.6146 53.2238C51.1312 52.8623 51.5615 52.391 51.8746 51.8438C52.3021 51.1237 52.2871 50.6175 52.6883 50.2687C52.9058 50.1208 53.1467 50.0105 53.4008 49.9425C54.7257 49.5956 56.0028 49.0868 57.2033 48.4275C57.8033 48.1012 58.3508 47.6775 58.8121 47.1675L58.8271 47.1488C59.9671 45.93 60.2521 44.49 59.7871 43.2225Z" fill="#96C1E8"/>
<ellipse cx="24.5" cy="16.5" rx="1.5" ry="2.5" fill="white"/>
<ellipse cx="34.5" cy="16.5" rx="1.5" ry="2.5" fill="white"/>
</g>
<defs>
<clipPath id="clip0_473_834">
<rect width="60" height="60" fill="white"/>
</clipPath>
</defs>
</svg>
