<svg width="32" height="32" viewBox="0 0 32 32" fill="none" xmlns="http://www.w3.org/2000/svg">
<g clip-path="url(#clip0_740_137)">
<path d="M17.0667 31.9999H14.9333C14.1472 32.0056 13.3864 31.7217 12.7962 31.2023C12.206 30.6829 11.8277 29.9644 11.7334 29.1839C11.0175 28.9577 10.3218 28.6723 9.65337 28.3306C9.03443 28.82 8.2565 29.0635 7.46898 29.0143C6.68147 28.965 5.93991 28.6266 5.38672 28.0639L3.93606 26.5599C3.3734 26.0068 3.03496 25.2652 2.98574 24.4777C2.93652 23.6902 3.17999 22.9122 3.6694 22.2933C3.33042 21.642 3.04503 20.9642 2.81607 20.2666C2.03556 20.1723 1.31709 19.794 0.797713 19.2038C0.278336 18.6136 -0.00559503 17.8528 8.35594e-05 17.0667V14.9333C-0.00559503 14.1472 0.278336 13.3864 0.797713 12.7962C1.31709 12.206 2.03556 11.8277 2.81607 11.7334C3.0423 11.0175 3.32772 10.3218 3.6694 9.65337C3.17999 9.03443 2.93652 8.2565 2.98574 7.46898C3.03496 6.68147 3.3734 5.93991 3.93606 5.38672L5.44005 3.93606C5.99324 3.3734 6.7348 3.03496 7.52232 2.98574C8.30983 2.93652 9.08776 3.17999 9.7067 3.6694C10.358 3.33042 11.0358 3.04503 11.7334 2.81607C11.8277 2.03556 12.206 1.31709 12.7962 0.797713C13.3864 0.278336 14.1472 -0.00559503 14.9333 8.35594e-05H17.0667C17.8528 -0.00559503 18.6136 0.278336 19.2038 0.797713C19.794 1.31709 20.1723 2.03556 20.2666 2.81607C20.9825 3.0423 21.6782 3.32772 22.3466 3.6694C22.9656 3.17999 23.7435 2.93652 24.531 2.98574C25.3185 3.03496 26.0601 3.3734 26.6133 3.93606L28.0639 5.44005C28.6266 5.99324 28.965 6.7348 29.0143 7.52232C29.0635 8.30983 28.82 9.08776 28.3306 9.7067C28.6723 10.3751 28.9577 11.0709 29.1839 11.7867C29.9553 11.8799 30.6665 12.2506 31.1846 12.8296C31.7028 13.4086 31.9926 14.1564 31.9999 14.9333V17.0667C32.0056 17.8528 31.7217 18.6136 31.2023 19.2038C30.6829 19.794 29.9644 20.1723 29.1839 20.2666C28.9577 20.9825 28.6723 21.6782 28.3306 22.3466C28.82 22.9656 29.0635 23.7435 29.0143 24.531C28.965 25.3185 28.6266 26.0601 28.0639 26.6133L26.5599 28.0639C26.0068 28.6266 25.2652 28.965 24.4777 29.0143C23.6902 29.0635 22.9122 28.82 22.2933 28.3306C21.6249 28.6723 20.9291 28.9577 20.2133 29.1839C20.1201 29.9553 19.7494 30.6665 19.1704 31.1846C18.5914 31.7028 17.8436 31.9926 17.0667 31.9999ZM9.50403 25.9519C9.69592 25.9486 9.88473 26.0005 10.048 26.1013C10.9911 26.656 12.0072 27.0761 13.0667 27.3493C13.3014 27.4097 13.5085 27.5483 13.6539 27.7422C13.7993 27.9361 13.8743 28.1737 13.8667 28.4159V28.7999C13.8667 29.0828 13.9791 29.3541 14.1791 29.5542C14.3791 29.7542 14.6504 29.8666 14.9333 29.8666H17.0667C17.3496 29.8666 17.6209 29.7542 17.8209 29.5542C18.0209 29.3541 18.1333 29.0828 18.1333 28.7999V28.3839C18.1257 28.1417 18.2007 27.9041 18.3461 27.7102C18.4915 27.5163 18.6986 27.3777 18.9333 27.3173C19.9928 27.0441 21.0089 26.624 21.952 26.0693C22.1546 25.9499 22.3911 25.9009 22.6245 25.9298C22.8579 25.9588 23.0752 26.064 23.2426 26.2293L23.5413 26.5279C23.6405 26.6279 23.7584 26.7073 23.8884 26.7614C24.0184 26.8156 24.1578 26.8435 24.2986 26.8435C24.4394 26.8435 24.5789 26.8156 24.7088 26.7614C24.8388 26.7073 24.9568 26.6279 25.056 26.5279L26.5599 25.024C26.6599 24.9248 26.7393 24.8068 26.7934 24.6768C26.8476 24.5469 26.8755 24.4074 26.8755 24.2666C26.8755 24.1258 26.8476 23.9864 26.7934 23.8564C26.7393 23.7264 26.6599 23.6085 26.5599 23.5093L26.2613 23.2106C26.096 23.0432 25.9908 22.8259 25.9618 22.5925C25.9329 22.3591 25.9819 22.1226 26.1013 21.92C26.656 20.9769 27.0761 19.9608 27.3493 18.9013C27.4097 18.6666 27.5483 18.4595 27.7422 18.3141C27.9361 18.1687 28.1737 18.0937 28.4159 18.1013H28.7999C29.0828 18.1013 29.3541 17.9889 29.5542 17.7889C29.7542 17.5889 29.8666 17.3176 29.8666 17.0347V14.9333C29.8666 14.6504 29.7542 14.3791 29.5542 14.1791C29.3541 13.9791 29.0828 13.8667 28.7999 13.8667H28.3839C28.1417 13.8743 27.9041 13.7993 27.7102 13.6539C27.5163 13.5085 27.3777 13.3014 27.3173 13.0667C27.0441 12.0072 26.624 10.9911 26.0693 10.048C25.9499 9.84536 25.9009 9.60892 25.9298 9.3755C25.9588 9.14207 26.064 8.92476 26.2293 8.75737L26.5279 8.45871C26.6279 8.35955 26.7073 8.24157 26.7614 8.11159C26.8156 7.98161 26.8435 7.84219 26.8435 7.70138C26.8435 7.56056 26.8156 7.42115 26.7614 7.29116C26.7073 7.16118 26.6279 7.04321 26.5279 6.94405L25.056 5.44005C24.9568 5.34008 24.8388 5.26073 24.7088 5.20657C24.5789 5.15242 24.4394 5.12454 24.2986 5.12454C24.1578 5.12454 24.0184 5.15242 23.8884 5.20657C23.7584 5.26073 23.6405 5.34008 23.5413 5.44005L23.2426 5.73872C23.0752 5.90396 22.8579 6.00924 22.6245 6.03817C22.3911 6.06711 22.1546 6.01808 21.952 5.89872C21.0089 5.34401 19.9928 4.92394 18.9333 4.65073C18.6986 4.59026 18.4915 4.45168 18.3461 4.2578C18.2007 4.06391 18.1257 3.8263 18.1333 3.58407V3.20007C18.1333 2.91717 18.0209 2.64586 17.8209 2.44582C17.6209 2.24579 17.3496 2.13341 17.0667 2.13341H14.9333C14.6504 2.13341 14.3791 2.24579 14.1791 2.44582C13.9791 2.64586 13.8667 2.91717 13.8667 3.20007V3.61606C13.8743 3.85829 13.7993 4.09591 13.6539 4.28979C13.5085 4.48368 13.3014 4.62226 13.0667 4.68273C12.0072 4.95594 10.9911 5.37601 10.048 5.93072C9.84536 6.05008 9.60892 6.09911 9.3755 6.07017C9.14207 6.04124 8.92476 5.93596 8.75737 5.77072L8.45871 5.44005C8.35955 5.34008 8.24157 5.26073 8.11159 5.20657C7.98161 5.15242 7.84219 5.12454 7.70138 5.12454C7.56056 5.12454 7.42115 5.15242 7.29116 5.20657C7.16118 5.26073 7.04321 5.34008 6.94405 5.44005L5.44005 6.94405C5.34008 7.04321 5.26073 7.16118 5.20657 7.29116C5.15242 7.42115 5.12454 7.56056 5.12454 7.70138C5.12454 7.84219 5.15242 7.98161 5.20657 8.11159C5.26073 8.24157 5.34008 8.35955 5.44005 8.45871L5.73872 8.75737C5.90396 8.92476 6.00924 9.14207 6.03817 9.3755C6.06711 9.60892 6.01808 9.84536 5.89872 10.048C5.34401 10.9911 4.92394 12.0072 4.65073 13.0667C4.59026 13.3014 4.45168 13.5085 4.2578 13.6539C4.06391 13.7993 3.8263 13.8743 3.58407 13.8667H3.20007C2.91717 13.8667 2.64586 13.9791 2.44582 14.1791C2.24579 14.3791 2.13341 14.6504 2.13341 14.9333V17.0667C2.13341 17.3496 2.24579 17.6209 2.44582 17.8209C2.64586 18.0209 2.91717 18.1333 3.20007 18.1333H3.61606C3.85829 18.1257 4.09591 18.2007 4.28979 18.3461C4.48368 18.4915 4.62226 18.6986 4.68273 18.9333C4.95594 19.9928 5.37601 21.0089 5.93072 21.952C6.05008 22.1546 6.09911 22.3911 6.07017 22.6245C6.04124 22.8579 5.93596 23.0752 5.77072 23.2426L5.47205 23.5413C5.37208 23.6405 5.29273 23.7584 5.23857 23.8884C5.18442 24.0184 5.15654 24.1578 5.15654 24.2986C5.15654 24.4394 5.18442 24.5789 5.23857 24.7088C5.29273 24.8388 5.37208 24.9568 5.47205 25.056L6.94405 26.5599C7.04321 26.6599 7.16118 26.7393 7.29116 26.7934C7.42115 26.8476 7.56056 26.8755 7.70138 26.8755C7.84219 26.8755 7.98161 26.8476 8.11159 26.7934C8.24157 26.7393 8.35955 26.6599 8.45871 26.5599L8.75737 26.2613C8.95605 26.0642 9.22421 25.9531 9.50403 25.9519Z" fill="#555555"/>
<path d="M15.9998 23.4665C14.5231 23.4665 13.0795 23.0286 11.8516 22.2081C10.6237 21.3877 9.6667 20.2215 9.10157 18.8572C8.53644 17.4928 8.38857 15.9916 8.67668 14.5432C8.96478 13.0948 9.6759 11.7644 10.7201 10.7201C11.7644 9.6759 13.0948 8.96478 14.5432 8.67668C15.9916 8.38857 17.4928 8.53644 18.8572 9.10157C20.2215 9.6667 21.3877 10.6237 22.2081 11.8516C23.0286 13.0795 23.4665 14.5231 23.4665 15.9998C23.4665 17.9801 22.6798 19.8793 21.2795 21.2795C19.8793 22.6798 17.9801 23.4665 15.9998 23.4665ZM15.9998 10.6665C14.945 10.6665 13.9139 10.9793 13.0368 11.5654C12.1598 12.1514 11.4762 12.9843 11.0725 13.9589C10.6688 14.9334 10.5632 16.0058 10.769 17.0403C10.9748 18.0749 11.4827 19.0252 12.2286 19.7711C12.9745 20.5169 13.9248 21.0249 14.9594 21.2307C15.9939 21.4364 17.0663 21.3308 18.0408 20.9272C19.0153 20.5235 19.8483 19.8399 20.4343 18.9629C21.0203 18.0858 21.3331 17.0547 21.3331 15.9998C21.3331 14.5854 20.7712 13.2288 19.7711 12.2286C18.7709 11.2284 17.4143 10.6665 15.9998 10.6665Z" fill="#555555"/>
</g>
<defs>
<clipPath id="clip0_740_137">
<rect width="32" height="32" fill="white"/>
</clipPath>
</defs>
</svg>
