<svg width="127" height="31" viewBox="0 0 127 31" fill="none" xmlns="http://www.w3.org/2000/svg">
<path d="M13.8 11.68V10.96H24.12V11.68H22.48L26.08 25.16L29.64 11.68H26.88V10.96H32.28V11.68H30.6L25.8 30H20.32L16.84 17.72L13.08 30H7.72L1.8 11.68H0V10.96H12.12V11.68H9.72L13.4 25.28L16.28 15.92L15.28 11.68H13.8Z" fill="#5F90CB"/>
<path d="M44.9931 22.12V18.72C44.9931 16.1333 44.8465 14.2533 44.5531 13.08C44.2865 11.88 43.6465 11.28 42.6331 11.28C42.0465 11.28 41.5665 11.4533 41.1931 11.8C40.8465 12.12 40.5931 12.6667 40.4331 13.44C40.1931 14.64 40.0731 16.4667 40.0731 18.92V22.04C40.0731 24.9467 40.1531 26.6933 40.3131 27.28C40.4998 27.8667 40.6865 28.3467 40.8731 28.72C41.1665 29.36 41.7398 29.68 42.5931 29.68C43.6331 29.68 44.3131 29.08 44.6331 27.88C44.8731 27.0267 44.9931 25.1067 44.9931 22.12ZM42.5131 30.4C39.1798 30.4 36.6598 29.5467 34.9531 27.84C33.2465 26.1333 32.3931 23.6933 32.3931 20.52C32.3931 17.32 33.2998 14.8667 35.1131 13.16C36.9531 11.4267 39.5265 10.56 42.8331 10.56C46.1398 10.56 48.6065 11.36 50.2331 12.96C51.8598 14.5333 52.6731 16.9467 52.6731 20.2C52.6731 27 49.2865 30.4 42.5131 30.4Z" fill="#5F90CB"/>
<path d="M67.1519 12.08C66.1652 12.08 65.2985 12.72 64.5519 14C63.8052 15.28 63.4319 16.8 63.4319 18.56V29.28H66.2719V30H53.7919V29.28H55.9919V11.68H53.7919V10.96H63.4319V14.8C63.7785 13.44 64.4452 12.4 65.4319 11.68C66.4185 10.9333 67.5385 10.56 68.7919 10.56C70.0452 10.56 71.0585 10.92 71.8319 11.64C72.6319 12.3333 73.0319 13.3333 73.0319 14.64C73.0319 15.92 72.7385 16.9067 72.1519 17.6C71.5652 18.2933 70.6585 18.64 69.4319 18.64C68.2319 18.64 67.3385 18.24 66.7519 17.44C66.1919 16.64 66.1252 15.5333 66.5519 14.12H67.9919C68.6585 12.76 68.3785 12.08 67.1519 12.08Z" fill="#5F90CB"/>
<path d="M86.2859 30V29.28H88.1259L83.6059 20L82.8459 20.2V29.28H84.6859V30H73.2059V29.28H75.4059V0.719999H73.0459V0H82.8459V19.4L83.4859 19.16L92.4859 11.68H88.7259V10.96H96.6059V11.68H93.8059L89.0459 15.72L95.9659 29.28H97.4059V30H86.2859Z" fill="#5F90CB"/>
<path d="M103.891 8.2C102.477 8.2 101.464 7.84 100.851 7.12C100.264 6.4 99.9706 5.50667 99.9706 4.44C99.9706 3.37333 100.291 2.49333 100.931 1.8C101.597 1.10667 102.597 0.760002 103.931 0.760002C105.264 0.760002 106.277 1.08 106.971 1.72C107.664 2.33333 108.011 3.22667 108.011 4.4C108.011 5.54667 107.677 6.46667 107.011 7.16C106.344 7.85333 105.304 8.2 103.891 8.2ZM97.8506 10.96H107.651V29.28H109.891V30H98.0106V29.28H100.211V11.68H97.8506V10.96Z" fill="#5F90CB"/>
<path d="M112.706 24.28V11.68H110.506V10.96H112.706V5.8L120.146 3.96V10.96H125.346V11.68H120.146V25.16C120.146 26.4133 120.266 27.3333 120.506 27.92C120.773 28.5067 121.306 28.8 122.106 28.8C122.906 28.8 123.599 28.4 124.186 27.6C124.799 26.8 125.199 25.7067 125.386 24.32L126.066 24.4C125.853 26.24 125.266 27.7067 124.306 28.8C123.346 29.8667 121.759 30.4 119.546 30.4C117.333 30.4 115.639 29.96 114.466 29.08C113.293 28.2 112.706 26.6 112.706 24.28Z" fill="#5F90CB"/>
</svg>
