<svg width="24" height="24" viewBox="0 0 24 24" fill="none" xmlns="http://www.w3.org/2000/svg">
<path d="M12.7764 1.52831C12.5193 1.50933 12.2617 1.49983 12.0039 1.49981V0C12.2987 0.000143723 12.5934 0.0111498 12.8874 0.0329959L12.7764 1.52831ZM15.7822 2.20322C15.3014 2.0177 14.8076 1.86782 14.3048 1.75478L14.6333 0.290964C15.2077 0.419948 15.7732 0.590926 16.3222 0.8039L15.7822 2.20322ZM17.8371 3.26809C17.6226 3.12508 17.403 2.99001 17.1786 2.86314L17.9181 1.55831C18.4309 1.84887 18.9217 2.17671 19.3865 2.53918L18.464 3.72253C18.2607 3.5639 18.0516 3.41282 17.8371 3.26959V3.26809ZM20.5879 5.95276C20.2912 5.53127 19.9639 5.13224 19.6085 4.75891L20.6944 3.72403C21.0994 4.15148 21.4744 4.60892 21.8148 5.08886L20.5879 5.95276ZM21.7038 7.9805C21.6054 7.74272 21.4983 7.50859 21.3829 7.27859L22.7223 6.60367C22.9872 7.13024 23.2128 7.67565 23.3972 8.23547L21.9723 8.70491C21.8917 8.46024 21.8022 8.21861 21.7038 7.9805ZM22.4988 11.7405C22.4867 11.2251 22.4365 10.7113 22.3488 10.2032L23.8262 9.94826C23.9267 10.5272 23.9852 11.1151 24.0002 11.703L22.5003 11.7405H22.4988ZM22.3023 14.0472C22.3518 13.7923 22.3923 13.5388 22.4238 13.2823L23.9132 13.4668C23.8412 14.052 23.7259 14.631 23.5682 15.1991L22.1223 14.7986C22.1913 14.5512 22.2513 14.3007 22.3023 14.0472ZM20.8744 17.6153C21.1504 17.1804 21.3934 16.7244 21.6033 16.2535L22.9743 16.8609C22.7343 17.4008 22.4568 17.9198 22.1418 18.4177L20.8744 17.6153ZM19.4285 19.4226C19.6115 19.2396 19.787 19.0506 19.9534 18.8556L21.0904 19.835C20.8978 20.0582 20.6972 20.2744 20.4889 20.4829L19.4285 19.4226Z" fill="#555555"/>
<path d="M12.004 1.49981C10.2774 1.49994 8.5775 1.92583 7.05484 2.73977C5.53218 3.5537 4.23376 4.73056 3.27458 6.1661C2.3154 7.60165 1.72508 9.25156 1.55589 10.9697C1.3867 12.6879 1.64387 14.4212 2.30462 16.0163C2.96537 17.6113 4.00931 19.0188 5.34396 20.1141C6.67862 21.2093 8.26281 21.9586 9.95621 22.2954C11.6496 22.6323 13.3999 22.5463 15.0522 22.0452C16.7045 21.5441 18.2076 20.6433 19.4286 19.4226L20.489 20.4829C19.0937 21.8789 17.3756 22.9092 15.4868 23.4826C13.5981 24.0559 11.5972 24.1545 9.66122 23.7698C7.72527 23.385 5.91413 22.5287 4.38825 21.2767C2.86238 20.0247 1.66889 18.4157 0.913534 16.5923C0.158177 14.7688 -0.135727 12.7872 0.0578635 10.8231C0.251454 8.85888 0.926561 6.97278 2.02337 5.33186C3.12018 3.69094 4.60482 2.34587 6.34576 1.41583C8.08669 0.485782 10.0302 -0.000523033 12.004 4.22135e-07V1.49981Z" fill="#555555"/>
<path d="M11.2539 4.49951C11.4528 4.49951 11.6435 4.57852 11.7842 4.71915C11.9248 4.85979 12.0038 5.05053 12.0038 5.24942V13.0634L16.8755 15.8471C17.0432 15.9482 17.1647 16.111 17.214 16.3005C17.2633 16.49 17.2365 16.6913 17.1393 16.8613C17.0421 17.0313 16.8823 17.1566 16.694 17.2103C16.5057 17.2641 16.3039 17.242 16.1316 17.1489L10.8819 14.1493C10.7671 14.0837 10.6717 13.989 10.6053 13.8747C10.5389 13.7604 10.5039 13.6306 10.5039 13.4984V5.24942C10.5039 5.05053 10.5829 4.85979 10.7236 4.71915C10.8642 4.57852 11.055 4.49951 11.2539 4.49951Z" fill="#555555"/>
</svg>
