<svg width="36" height="36" viewBox="0 0 36 36" fill="none" xmlns="http://www.w3.org/2000/svg">
<g clip-path="url(#clip0_175_316)">
<path d="M16.7142 17.9998H34.7142M34.7142 17.9998L29.5714 12.8569M34.7142 17.9998L29.5714 23.1426" stroke="#555555" stroke-width="3" stroke-linecap="round" stroke-linejoin="round"/>
<path d="M30.0857 29.5455C27.7766 31.9522 24.8004 33.6131 21.5397 34.3145C18.279 35.016 14.883 34.7258 11.7886 33.4815C8.69416 32.2371 6.04276 30.0954 4.17545 27.3319C2.30813 24.5683 1.3103 21.3093 1.3103 17.9741C1.3103 14.6388 2.30813 11.3798 4.17545 8.61625C6.04276 5.85271 8.69416 3.71102 11.7886 2.46665C14.883 1.22228 18.279 0.932149 21.5397 1.63357C24.8004 2.33499 27.7766 3.99589 30.0857 6.40263" stroke="#555555" stroke-width="3" stroke-linecap="round" stroke-linejoin="round"/>
</g>
<defs>
<clipPath id="clip0_175_316">
<rect width="36" height="36" fill="white"/>
</clipPath>
</defs>
</svg>
