<svg width="32" height="32" viewBox="0 0 32 32" fill="none" xmlns="http://www.w3.org/2000/svg">
<path d="M24.5377 22.8573C24.2877 22.8579 24.0456 22.7649 23.8532 22.5945L19.0187 18.2859H17.0507C14.7814 18.2859 12.6049 17.3225 11.0003 15.608C9.39563 13.8934 8.49414 11.5677 8.49414 9.14293C8.49414 6.71807 9.39563 4.39254 11.0003 2.67791C12.6049 0.963265 14.7814 0 17.0507 0H23.4681C25.5464 0.0063429 27.5515 0.820738 29.109 2.29113C30.6667 3.76151 31.67 5.78737 31.932 7.99041C32.194 10.1934 31.6965 12.4231 30.5327 14.263C29.3688 16.1029 27.6181 17.4272 25.6073 17.9887V21.7144C25.6078 21.9331 25.5496 22.1473 25.4397 22.3315C25.3297 22.5158 25.1726 22.6627 24.9869 22.7545C24.8459 22.8231 24.6927 22.8582 24.5377 22.8573ZM17.0507 2.28573C15.3487 2.28573 13.7164 3.00818 12.5129 4.29416C11.3094 5.58013 10.6333 7.32428 10.6333 9.14293C10.6333 10.9616 11.3094 12.7057 12.5129 13.9916C13.7164 15.2777 15.3487 16.0001 17.0507 16.0001H19.4038C19.6537 15.9995 19.8959 16.0926 20.0883 16.263L23.4681 19.2687V17.0516C23.4656 16.7742 23.5574 16.5054 23.7267 16.2951C23.896 16.0848 24.1309 15.9475 24.388 15.9087C25.9686 15.6319 27.3952 14.7336 28.3875 13.3902C29.3799 12.0467 29.8662 10.3554 29.7509 8.64832C29.6356 6.9413 28.9271 5.34204 27.7646 4.16474C26.6021 2.98744 25.0696 2.31721 23.4681 2.28573H17.0507Z" fill="#555555"/>
<path d="M21 4C21.2652 4 21.5196 4.10536 21.7071 4.29289C21.8946 4.48043 22 4.73478 22 5V8H25C25.2652 8 25.5196 8.10536 25.7071 8.29289C25.8946 8.48043 26 8.73478 26 9C26 9.26522 25.8946 9.51957 25.7071 9.70711C25.5196 9.89464 25.2652 10 25 10H22V13C22 13.2652 21.8946 13.5196 21.7071 13.7071C21.5196 13.8946 21.2652 14 21 14C20.7348 14 20.4804 13.8946 20.2929 13.7071C20.1054 13.5196 20 13.2652 20 13V10H17C16.7348 10 16.4804 9.89464 16.2929 9.70711C16.1054 9.51957 16 9.26522 16 9C16 8.73478 16.1054 8.48043 16.2929 8.29289C16.4804 8.10536 16.7348 8 17 8H20V5C20 4.73478 20.1054 4.48043 20.2929 4.29289C20.4804 4.10536 20.7348 4 21 4Z" fill="#555555"/>
<path d="M7.42335 31.9998C7.26841 32.0007 7.11513 31.9656 6.97413 31.8969C6.78847 31.8051 6.63135 31.6584 6.5214 31.4741C6.41145 31.2897 6.35328 31.0755 6.35378 30.8569V27.1312C4.65196 26.6467 3.13149 25.613 1.99991 24.1709C0.868316 22.7288 0.180731 20.9488 0.0309916 19.0738C-0.118754 17.1987 0.27664 15.32 1.16321 13.6939C2.04978 12.0678 3.38433 10.7738 4.98473 9.98817C5.1139 9.91549 5.25565 9.87171 5.40123 9.85983C5.54681 9.84783 5.69315 9.86783 5.83122 9.91857C5.96929 9.96932 6.09618 10.0497 6.20407 10.1548C6.31196 10.2599 6.39855 10.3876 6.45853 10.5298C6.51851 10.6721 6.5506 10.8259 6.55281 10.9819C6.55503 11.1379 6.52734 11.2928 6.47143 11.4369C6.41552 11.581 6.33259 11.7114 6.22774 11.82C6.12289 11.9285 5.99835 12.013 5.86178 12.0682C4.59961 12.6797 3.55661 13.7114 2.88874 15.0089C2.22088 16.3064 1.96407 17.8001 2.15668 19.2665C2.3493 20.7329 2.98101 22.0934 3.95733 23.1444C4.93367 24.1953 6.20214 24.8803 7.57309 25.0969C7.83008 25.1357 8.0651 25.2731 8.23434 25.4834C8.40357 25.6935 8.49547 25.9625 8.49292 26.2397V28.4569L11.8728 25.4511C12.0591 25.2643 12.302 25.1548 12.5573 25.1426H14.9104C15.7669 25.1443 16.6149 24.961 17.4034 24.6035C18.192 24.246 18.9047 23.7219 19.4988 23.0626C19.6973 22.8444 19.9689 22.7194 20.2538 22.715C20.3948 22.713 20.5348 22.7405 20.6659 22.7963C20.7969 22.8519 20.9164 22.9347 21.0176 23.0397C21.1187 23.1448 21.1995 23.2701 21.2553 23.4085C21.3111 23.5469 21.3408 23.6957 21.3429 23.8464C21.3448 23.9972 21.319 24.1468 21.2669 24.2868C21.2147 24.4269 21.1373 24.5546 21.039 24.6626C20.2421 25.5375 19.2891 26.233 18.2365 26.708C17.1839 27.183 16.053 27.428 14.9104 27.4283H12.9423L8.10787 31.7369C7.91545 31.9073 7.67326 32.0003 7.42335 31.9998Z" fill="#555555"/>
</svg>
