<svg width="40" height="40" viewBox="0 0 40 40" fill="none" xmlns="http://www.w3.org/2000/svg">
<g clip-path="url(#clip0_175_320)">
<path fill-rule="evenodd" clip-rule="evenodd" d="M22.5 5C26.2573 5 29.8606 6.49256 32.5174 9.14932C35.1742 11.8061 36.6667 15.4094 36.6667 19.1667C36.6667 22.9239 35.1742 26.5272 32.5174 29.184C29.8606 31.8408 26.2573 33.3333 22.5 33.3333H21.6667V34.9833C21.6667 35.2045 21.6231 35.4236 21.5384 35.6279C21.4537 35.8322 21.3296 36.0179 21.1731 36.1742C21.0166 36.3306 20.8308 36.4545 20.6264 36.539C20.422 36.6235 20.2029 36.6669 19.9817 36.6667C15.8817 36.6633 11.7284 35.295 8.57671 32.4933C5.39671 29.6633 3.33671 25.4583 3.33337 20.015V19.1667C3.33337 15.4094 4.82593 11.8061 7.48269 9.14932C10.1395 6.49256 13.7428 5 17.5 5H22.5ZM14.1667 16.6667C13.5037 16.6667 12.8678 16.9301 12.3989 17.3989C11.9301 17.8677 11.6667 18.5036 11.6667 19.1667C11.6667 19.8297 11.9301 20.4656 12.3989 20.9344C12.8678 21.4033 13.5037 21.6667 14.1667 21.6667C14.8297 21.6667 15.4656 21.4033 15.9345 20.9344C16.4033 20.4656 16.6667 19.8297 16.6667 19.1667C16.6667 18.5036 16.4033 17.8677 15.9345 17.3989C15.4656 16.9301 14.8297 16.6667 14.1667 16.6667ZM25.8334 16.6667C25.1703 16.6667 24.5344 16.9301 24.0656 17.3989C23.5968 17.8677 23.3334 18.5036 23.3334 19.1667C23.3334 19.8297 23.5968 20.4656 24.0656 20.9344C24.5344 21.4033 25.1703 21.6667 25.8334 21.6667C26.4964 21.6667 27.1323 21.4033 27.6011 20.9344C28.07 20.4656 28.3334 19.8297 28.3334 19.1667C28.3334 18.5036 28.07 17.8677 27.6011 17.3989C27.1323 16.9301 26.4964 16.6667 25.8334 16.6667Z" fill="#595959"/>
</g>
<defs>
<clipPath id="clip0_175_320">
<rect width="40" height="40" fill="white"/>
</clipPath>
</defs>
</svg>
