<svg width="32" height="32" viewBox="0 0 32 32" fill="none" xmlns="http://www.w3.org/2000/svg">
<path d="M14 25.1802C12.6739 25.1802 11.4021 24.6534 10.4645 23.7157C9.52678 22.778 9 21.5063 9 20.1802V18.3602C9.00003 18.1866 9.04522 18.0161 9.13114 17.8653C9.21705 17.7145 9.34072 17.5887 9.49 17.5002L13.12 15.3202C13.3456 15.2182 13.601 15.2036 13.8368 15.2791C14.0725 15.3546 14.2719 15.5148 14.3963 15.7288C14.5208 15.9428 14.5614 16.1954 14.5103 16.4376C14.4593 16.6799 14.3202 16.8946 14.12 17.0402L11 18.9302V20.1802C11 20.9758 11.3161 21.7389 11.8787 22.3015C12.4413 22.8641 13.2044 23.1802 14 23.1802C14.2652 23.1802 14.5196 23.2855 14.7071 23.4731C14.8946 23.6606 15 23.915 15 24.1802C15 24.4454 14.8946 24.6998 14.7071 24.8873C14.5196 25.0748 14.2652 25.1802 14 25.1802Z" fill="#555555"/>
<path d="M7 25.1802H6C5.34339 25.1802 4.69321 25.0509 4.08658 24.7996C3.47995 24.5483 2.92876 24.18 2.46447 23.7157C1.52678 22.778 1 21.5063 1 20.1802V18.3602C1.00003 18.1866 1.04522 18.0161 1.13114 17.8653C1.21705 17.7145 1.34072 17.5887 1.49 17.5002L5.12 15.3202C5.34559 15.2182 5.60098 15.2036 5.83675 15.2791C6.07252 15.3546 6.27192 15.5148 6.39634 15.7288C6.52077 15.9428 6.56139 16.1954 6.51035 16.4376C6.4593 16.6799 6.32021 16.8946 6.12 17.0402L3 18.9302V20.1802C3 20.9758 3.31607 21.7389 3.87868 22.3015C4.44129 22.8641 5.20435 23.1802 6 23.1802H7C7.26522 23.1802 7.51957 23.2855 7.70711 23.4731C7.89464 23.6606 8 23.915 8 24.1802C8 24.4454 7.89464 24.6998 7.70711 24.8873C7.51957 25.0748 7.26522 25.1802 7 25.1802Z" fill="#555555"/>
<path d="M10 15C8.4087 15 6.88258 14.3679 5.75736 13.2426C4.63214 12.1174 4 10.5913 4 9C4 7.4087 4.63214 5.88258 5.75736 4.75736C6.88258 3.63214 8.4087 3 10 3C10.2652 3 10.5196 3.10536 10.7071 3.29289C10.8946 3.48043 11 3.73478 11 4C11 4.26522 10.8946 4.51957 10.7071 4.70711C10.5196 4.89464 10.2652 5 10 5C8.93913 5 7.92172 5.42143 7.17157 6.17157C6.42143 6.92172 6 7.93913 6 9C6 10.0609 6.42143 11.0783 7.17157 11.8284C7.92172 12.5786 8.93913 13 10 13C10.2652 13 10.5196 13.1054 10.7071 13.2929C10.8946 13.4804 11 13.7348 11 14C11 14.2652 10.8946 14.5196 10.7071 14.7071C10.5196 14.8946 10.2652 15 10 15Z" fill="#555555"/>
<path d="M18 15C16.8133 15 15.6533 14.6481 14.6666 13.9888C13.6799 13.3295 12.9109 12.3925 12.4567 11.2961C12.0026 10.1997 11.8838 8.99335 12.1153 7.82946C12.3468 6.66558 12.9182 5.59648 13.7574 4.75736C14.5965 3.91825 15.6656 3.3468 16.8295 3.11529C17.9933 2.88378 19.1997 3.0026 20.2961 3.45673C21.3925 3.91085 22.3295 4.67989 22.9888 5.66658C23.6481 6.65328 24 7.81331 24 9C24 10.5913 23.3679 12.1174 22.2426 13.2426C21.1174 14.3679 19.5913 15 18 15ZM18 5C17.2089 5 16.4355 5.2346 15.7777 5.67412C15.1199 6.11365 14.6072 6.73836 14.3045 7.46927C14.0017 8.20017 13.9225 9.00444 14.0769 9.78036C14.2312 10.5563 14.6122 11.269 15.1716 11.8284C15.731 12.3878 16.4437 12.7688 17.2196 12.9231C17.9956 13.0775 18.7998 12.9983 19.5307 12.6955C20.2616 12.3928 20.8864 11.8801 21.3259 11.2223C21.7654 10.5645 22 9.79113 22 9C22 7.93914 21.5786 6.92172 20.8284 6.17158C20.0783 5.42143 19.0609 5 18 5Z" fill="#555555"/>
<path d="M24 29C22.6155 29 21.2622 28.5895 20.111 27.8203C18.9599 27.0511 18.0627 25.9579 17.5328 24.6788C17.003 23.3997 16.8644 21.9922 17.1345 20.6344C17.4046 19.2765 18.0713 18.0292 19.0503 17.0503C20.0292 16.0713 21.2765 15.4046 22.6344 15.1345C23.9922 14.8644 25.3997 15.003 26.6788 15.5328C27.9579 16.0627 29.0511 16.9599 29.8203 18.111C30.5895 19.2622 31 20.6155 31 22C31 23.8565 30.2625 25.637 28.9498 26.9497C27.637 28.2625 25.8565 29 24 29ZM24 17C23.0111 17 22.0444 17.2932 21.2222 17.8427C20.3999 18.3921 19.759 19.173 19.3806 20.0866C19.0022 21.0002 18.9032 22.0056 19.0961 22.9755C19.289 23.9454 19.7652 24.8363 20.4645 25.5355C21.1637 26.2348 22.0546 26.711 23.0246 26.9039C23.9945 27.0969 24.9998 26.9978 25.9134 26.6194C26.8271 26.241 27.6079 25.6001 28.1574 24.7779C28.7068 23.9556 29 22.9889 29 22C29 20.6739 28.4732 19.4022 27.5355 18.4645C26.5979 17.5268 25.3261 17 24 17Z" fill="#555555"/>
<path d="M27 21H21V23H27V21Z" fill="#555555"/>
<path d="M25 19H23V25H25V19Z" fill="#555555"/>
</svg>
